HIERARCHY
ROOT Hips
{
	OFFSET 0.000000 71.427986 0.000000
	CHANNELS 6 Xposition Yposition Zposition Xrotation Yrotation Zrotation
	JOINT Pelvis
	{
		OFFSET 0.000000 0.000000 0.000000
		CHANNELS 3 Xrotation Yrotation Zrotation
		JOINT LeftUpLeg
		{
			OFFSET 6.797100 -2.508499 -1.318700
			CHANNELS 3 Xrotation Yrotation Zrotation
			JOINT LeftLeg
			{
				OFFSET 0.069008 -29.241863 0.690200
				CHANNELS 3 Xrotation Yrotation Zrotation
				JOINT LeftFoot
				{
					OFFSET -0.069008 -29.568123 -0.266800
					CHANNELS 3 Xrotation Yrotation Zrotation
					JOINT LeftToeBase
					{
						OFFSET 3.145500 -8.631000 16.059900
						CHANNELS 3 Xrotation Yrotation Zrotation
						End Site
						{
							OFFSET 0.000000 18.501587 0.000000
						}
					}
				}
			}
			JOINT Left_ShortSleeve
			{
				OFFSET 0.265923 -10.480953 1.153800
				CHANNELS 3 Xrotation Yrotation Zrotation
				End Site
				{
					OFFSET 1.725763 19.823879 0.000000
				}
			}
		}
		JOINT RightUpLeg
		{
			OFFSET -6.797100 -2.508499 -1.318700
			CHANNELS 3 Xrotation Yrotation Zrotation
			JOINT RightLeg
			{
				OFFSET -0.082453 -29.241932 0.688000
				CHANNELS 3 Xrotation Yrotation Zrotation
				JOINT RightFoot
				{
					OFFSET 0.082453 -29.568058 -0.264600
					CHANNELS 3 Xrotation Yrotation Zrotation
					JOINT RightToeBase
					{
						OFFSET -3.115300 -8.682800 16.113400
						CHANNELS 3 Xrotation Yrotation Zrotation
						End Site
						{
							OFFSET 0.000000 18.567114 0.000000
						}
					}
				}
			}
			JOINT Right_ShortSleeve
			{
				OFFSET -0.265923 -10.480953 1.153800
				CHANNELS 3 Xrotation Yrotation Zrotation
				End Site
				{
					OFFSET -1.725766 19.823910 0.000000
				}
			}
		}
	}
	JOINT Spine
	{
		OFFSET 0.000000 13.368103 0.470500
		CHANNELS 3 Xrotation Yrotation Zrotation
		JOINT Spine1
		{
			OFFSET 0.147000 13.837402 0.538800
			CHANNELS 3 Xrotation Yrotation Zrotation
			JOINT Spine2
			{
				OFFSET 0.168000 16.242897 -1.435500
				CHANNELS 3 Xrotation Yrotation Zrotation
				JOINT Neck
				{
					OFFSET 0.217200 18.631500 -1.679100
					CHANNELS 3 Xrotation Yrotation Zrotation
					JOINT Head
					{
						OFFSET 0.000000 6.599396 1.385900
						CHANNELS 3 Xrotation Yrotation Zrotation
						JOINT Hat
						{
							OFFSET -0.532200 27.220596 -10.096100
							CHANNELS 3 Xrotation Yrotation Zrotation
							End Site
							{
								OFFSET 0.000000 22.029861 0.000000
							}
						}
						JOINT HairD
						{
							OFFSET -10.777400 17.437393 -1.325900
							CHANNELS 3 Xrotation Yrotation Zrotation
							JOINT HairD1
							{
								OFFSET -3.290299 -11.051193 1.062200
								CHANNELS 3 Xrotation Yrotation Zrotation
								End Site
								{
									OFFSET 0.000000 11.579437 0.000000
								}
							}
						}
						JOINT HairB
						{
							OFFSET -10.777400 17.437393 1.467900
							CHANNELS 3 Xrotation Yrotation Zrotation
							JOINT HairB1
							{
								OFFSET -1.561200 -12.956299 3.590200
								CHANNELS 3 Xrotation Yrotation Zrotation
								End Site
								{
									OFFSET 0.000000 13.534866 0.000000
								}
							}
						}
						JOINT HairA
						{
							OFFSET 9.713100 17.437393 1.467900
							CHANNELS 3 Xrotation Yrotation Zrotation
							JOINT HairA1
							{
								OFFSET 1.561200 -12.956299 3.590200
								CHANNELS 3 Xrotation Yrotation Zrotation
								End Site
								{
									OFFSET 0.000000 13.534866 0.000000
								}
							}
						}
						JOINT HairC
						{
							OFFSET 9.713100 17.437393 -1.325900
							CHANNELS 3 Xrotation Yrotation Zrotation
							JOINT HairC1
							{
								OFFSET 3.290300 -11.051193 1.062200
								CHANNELS 3 Xrotation Yrotation Zrotation
								End Site
								{
									OFFSET 0.000000 11.579437 0.000000
								}
							}
						}
					}
				}
				JOINT LeftShoulder
				{
					OFFSET 5.101800 15.108002 -2.763700
					CHANNELS 3 Xrotation Yrotation Zrotation
					JOINT LeftArm
					{
						OFFSET 9.825497 2.506317 -1.597400
						CHANNELS 3 Xrotation Yrotation Zrotation
						JOINT LeftForeArm
						{
							OFFSET 21.966244 0.000000 0.000000
							CHANNELS 3 Xrotation Yrotation Zrotation
							JOINT LeftHand
							{
								OFFSET 33.879036 0.000000 0.000000
								CHANNELS 3 Xrotation Yrotation Zrotation
								JOINT LeftHandThumb1
								{
									OFFSET 6.715286 -2.359680 3.363841
									CHANNELS 3 Xrotation Yrotation Zrotation
									JOINT LeftHandThumb2
									{
										OFFSET 2.507072 -1.447464 1.447461
										CHANNELS 3 Xrotation Yrotation Zrotation
										JOINT LeftHandThumb3
										{
											OFFSET 2.898338 -1.673355 1.673357
											CHANNELS 3 Xrotation Yrotation Zrotation
											End Site
											{
												OFFSET -0.295959 3.727692 -0.131651
											}
										}
									}
								}
								JOINT LeftHandIndex1
								{
									OFFSET 14.190811 -0.254547 3.840278
									CHANNELS 3 Xrotation Yrotation Zrotation
									JOINT LeftHandIndex2
									{
										OFFSET 3.551727 0.000000 -0.000000
										CHANNELS 3 Xrotation Yrotation Zrotation
										JOINT LeftHandIndex3
										{
											OFFSET 2.894196 0.000000 0.000000
											CHANNELS 3 Xrotation Yrotation Zrotation
											End Site
											{
												OFFSET -1.000603 2.690872 0.366626
											}
										}
									}
								}
								JOINT LeftHandMiddle1
								{
									OFFSET 13.776489 0.000000 0.000000
									CHANNELS 3 Xrotation Yrotation Zrotation
									JOINT LeftHandMiddle2
									{
										OFFSET 3.438232 0.000000 0.000000
										CHANNELS 3 Xrotation Yrotation Zrotation
										JOINT LeftHandMiddle3
										{
											OFFSET 3.691551 0.000000 0.000000
											CHANNELS 3 Xrotation Yrotation Zrotation
											End Site
											{
												OFFSET -1.082298 3.499527 0.457670
											}
										}
									}
								}
								JOINT LeftHandRing1
								{
									OFFSET 13.966164 -0.268127 -3.067488
									CHANNELS 3 Xrotation Yrotation Zrotation
									JOINT LeftHandRing2
									{
										OFFSET 3.162567 0.000000 0.000000
										CHANNELS 3 Xrotation Yrotation Zrotation
										JOINT LeftHandRing3
										{
											OFFSET 3.324348 0.000000 0.000000
											CHANNELS 3 Xrotation Yrotation Zrotation
											End Site
											{
												OFFSET -0.861900 3.184998 0.405154
											}
										}
									}
								}
								JOINT LeftHandPinky1
								{
									OFFSET 13.131393 -0.168503 -5.746925
									CHANNELS 3 Xrotation Yrotation Zrotation
									JOINT LeftHandPinky2
									{
										OFFSET 2.849182 0.000000 0.000000
										CHANNELS 3 Xrotation Yrotation Zrotation
										JOINT LeftHandPinky3
										{
											OFFSET 2.805038 0.000000 0.000000
											CHANNELS 3 Xrotation Yrotation Zrotation
											End Site
											{
												OFFSET -0.882500 2.642609 0.325652
											}
										}
									}
								}
							}
							JOINT Left_Sleeve
							{
								OFFSET 6.592125 -0.646545 0.805568
								CHANNELS 3 Xrotation Yrotation Zrotation
								End Site
								{
									OFFSET -0.000179 20.275787 -0.000000
								}
							}
						}
					}
				}
				JOINT RightShoulder
				{
					OFFSET -5.731700 15.108002 -2.763700
					CHANNELS 3 Xrotation Yrotation Zrotation
					JOINT RightArm
					{
						OFFSET -9.825497 2.506317 -1.597400
						CHANNELS 3 Xrotation Yrotation Zrotation
						JOINT RightForeArm
						{
							OFFSET -21.966242 0.000000 0.000000
							CHANNELS 3 Xrotation Yrotation Zrotation
							JOINT RightHand
							{
								OFFSET -33.879032 0.000000 0.000000
								CHANNELS 3 Xrotation Yrotation Zrotation
								JOINT RightHandThumb1
								{
									OFFSET -6.715286 -2.359680 3.363841
									CHANNELS 3 Xrotation Yrotation Zrotation
									JOINT RightHandThumb2
									{
										OFFSET -2.507072 -1.447464 1.447461
										CHANNELS 3 Xrotation Yrotation Zrotation
										JOINT RightHandThumb3
										{
											OFFSET -2.898338 -1.673355 1.673357
											CHANNELS 3 Xrotation Yrotation Zrotation
											End Site
											{
												OFFSET 0.295959 3.727692 -0.131651
											}
										}
									}
								}
								JOINT RightHandIndex1
								{
									OFFSET -14.190811 -0.254547 3.840278
									CHANNELS 3 Xrotation Yrotation Zrotation
									JOINT RightHandIndex2
									{
										OFFSET -3.551727 0.000000 -0.000000
										CHANNELS 3 Xrotation Yrotation Zrotation
										JOINT RightHandIndex3
										{
											OFFSET -2.894196 0.000000 0.000000
											CHANNELS 3 Xrotation Yrotation Zrotation
											End Site
											{
												OFFSET 1.000603 2.690872 0.366626
											}
										}
									}
								}
								JOINT RightHandMiddle1
								{
									OFFSET -13.776489 0.000000 0.000000
									CHANNELS 3 Xrotation Yrotation Zrotation
									JOINT RightHandMiddle2
									{
										OFFSET -3.438232 0.000000 0.000000
										CHANNELS 3 Xrotation Yrotation Zrotation
										JOINT RightHandMiddle3
										{
											OFFSET -3.691551 0.000000 0.000000
											CHANNELS 3 Xrotation Yrotation Zrotation
											End Site
											{
												OFFSET 1.082298 3.499527 0.457670
											}
										}
									}
								}
								JOINT RightHandRing1
								{
									OFFSET -13.966164 -0.268127 -3.067488
									CHANNELS 3 Xrotation Yrotation Zrotation
									JOINT RightHandRing2
									{
										OFFSET -3.162567 0.000000 0.000000
										CHANNELS 3 Xrotation Yrotation Zrotation
										JOINT RightHandRing3
										{
											OFFSET -3.324348 0.000000 0.000000
											CHANNELS 3 Xrotation Yrotation Zrotation
											End Site
											{
												OFFSET 0.861900 3.184998 0.405154
											}
										}
									}
								}
								JOINT RightHandPinky1
								{
									OFFSET -13.131393 -0.168503 -5.746925
									CHANNELS 3 Xrotation Yrotation Zrotation
									JOINT RightHandPinky2
									{
										OFFSET -2.849182 0.000000 0.000000
										CHANNELS 3 Xrotation Yrotation Zrotation
										JOINT RightHandPinky3
										{
											OFFSET -2.805038 0.000000 0.000000
											CHANNELS 3 Xrotation Yrotation Zrotation
											End Site
											{
												OFFSET 0.882500 2.642609 0.325652
											}
										}
									}
								}
							}
							JOINT Right_Sleeve
							{
								OFFSET -6.592125 -0.646545 0.805568
								CHANNELS 3 Xrotation Yrotation Zrotation
								End Site
								{
									OFFSET 0.000179 20.275787 -0.000000
								}
							}
						}
					}
				}
				JOINT Bind_Right_JacketString
				{
					OFFSET -3.534800 11.969597 7.200700
					CHANNELS 3 Xrotation Yrotation Zrotation
					JOINT Bind_Right_JacketString1
					{
						OFFSET -0.319900 -6.102600 2.794100
						CHANNELS 3 Xrotation Yrotation Zrotation
						End Site
						{
							OFFSET 0.000000 6.719452 0.000000
						}
					}
				}
				JOINT Bind_Left_JacketString
				{
					OFFSET 2.904800 11.969597 7.200700
					CHANNELS 3 Xrotation Yrotation Zrotation
					JOINT Bind_Left_JacketString1
					{
						OFFSET 0.364800 -5.904503 3.186800
						CHANNELS 3 Xrotation Yrotation Zrotation
						End Site
						{
							OFFSET 0.000000 6.719513 0.000000
						}
					}
				}
				JOINT HairE
				{
					OFFSET 5.915200 17.612701 -11.592200
					CHANNELS 3 Xrotation Yrotation Zrotation
					JOINT HairE1
					{
						OFFSET 0.289200 -7.171898 -1.284500
						CHANNELS 3 Xrotation Yrotation Zrotation
						End Site
						{
							OFFSET 0.000000 7.291756 0.000000
						}
					}
				}
				JOINT HairF
				{
					OFFSET -0.864800 17.612701 -11.592200
					CHANNELS 3 Xrotation Yrotation Zrotation
					JOINT HairF1
					{
						OFFSET 0.000000 -14.087097 -2.127501
						CHANNELS 3 Xrotation Yrotation Zrotation
						End Site
						{
							OFFSET 0.000000 14.246841 0.000000
						}
					}
				}
				JOINT HairG
				{
					OFFSET -8.087700 17.612701 -11.592200
					CHANNELS 3 Xrotation Yrotation Zrotation
					JOINT HairG1
					{
						OFFSET -0.293600 -6.081398 -0.910100
						CHANNELS 3 Xrotation Yrotation Zrotation
						End Site
						{
							OFFSET 0.000000 6.156120 0.000000
						}
					}
				}
			}
		}
	}
	JOINT Pouch
	{
		OFFSET 0.000000 4.394501 10.847300
		CHANNELS 3 Xrotation Yrotation Zrotation
		End Site
		{
			OFFSET 0.000000 21.880577 0.000000
		}
	}
	JOINT Bag
	{
		OFFSET -13.229000 4.813004 -0.593300
		CHANNELS 3 Xrotation Yrotation Zrotation
		End Site
		{
			OFFSET 0.000000 21.880577 0.000000
		}
	}
	JOINT OccupyGuyFacialAnim_Joint
	{
		OFFSET 1.000000 -70.206398 -1.655000
		CHANNELS 3 Xrotation Yrotation Zrotation
		End Site
		{
			OFFSET 0.000000 21.880577 0.000000
		}
	}
}
MOTION
Frames: 5
Frame Time: 0.016667
-4.496954 93.897102 -10.708853 9.978221 -10.722709 -1.347910 -0.000000 -0.000000 0.000000 -128.591466 -14.770726 32.474087 126.029107 -10.124535 -2.887785 16.987340 -25.862771 9.424317 0.000001 0.000000 -0.000001 0.000001 0.000001 -0.000003 -104.368453 25.309573 -42.936099 136.084689 3.521039 0.550283 0.859837 17.447392 33.179584 0.000001 -0.000002 0.000002 0.000005 -0.000000 -0.000001 33.156163 5.826575 2.630011 7.016428 1.371149 0.932974 7.016127 1.356910 0.957107 7.978312 3.451510 1.914779 -5.460694 28.728138 -21.647096 0.000001 -0.000001 0.000001 0.000001 -0.000001 0.000001 0.000001 -0.000001 0.000001 0.000001 -0.000001 -0.000000 0.000001 0.000002 -0.000001 0.000001 -0.000001 -0.000000 0.000001 0.000002 -0.000001 0.000001 -0.000001 0.000001 0.000001 -0.000001 0.000001 0.333783 -3.623989 3.511464 -39.710955 20.403436 24.454222 0.000001 -1.659871 0.000012 5.337918 -17.498064 -30.910455 -1.512211 3.683031 6.110832 3.939062 7.948709 0.746823 0.000000 0.000001 0.000001 0.033123 0.675968 -5.610581 0.032967 0.674435 -5.597738 0.000003 0.000002 -0.000002 0.069840 0.980273 -8.151117 0.078697 1.040174 -8.653171 0.000005 0.000002 0.000001 0.141437 1.391193 -11.609545 0.158264 1.470742 -12.283641 -0.000001 -0.000001 -0.000001 1.260512 5.698234 -14.444255 0.229467 -2.281940 -15.368557 -0.000001 -0.000001 -0.000001 0.000000 -0.000002 -0.000004 -3.152578 -6.176006 -32.353537 -43.155331 11.870929 -9.722799 0.000000 13.107163 0.000004 11.026651 -9.558993 61.789942 -1.849260 -3.581789 -6.586132 4.637198 -8.634119 -0.225397 0.000001 0.000000 0.000002 0.097317 -1.161577 9.577303 0.097301 -1.161575 9.577325 0.000001 0.000002 0.000002 0.734455 -4.504876 10.622733 0.142211 -1.401926 11.584703 0.000003 0.000000 0.000001 1.799558 -8.681473 12.425414 0.204358 -1.676606 13.897301 0.000003 -0.000001 -0.000000 3.082000 -12.378826 14.479188 0.252509 -1.860365 15.457620 -0.000003 0.000002 0.000001 0.000002 0.000001 -0.000001 -0.000003 -0.000000 -0.000001 -0.000003 -0.000000 -0.000001 -0.000003 -0.000000 -0.000001 -0.000003 -0.000000 -0.000001 -0.000003 -0.000000 -0.000001 -0.000003 -0.000000 -0.000001 -0.000003 -0.000000 -0.000001 -0.000003 -0.000000 -0.000001 -0.000003 -0.000000 -0.000001 -0.000003 -0.000000 -0.000001 -0.000000 -0.000000 0.000000 -0.000000 -0.000000 0.000000 -0.000000 -0.000000 0.000000 
-4.381181 93.461624 -10.452252 10.364151 -10.305642 -0.635652 -0.000001 -0.000001 0.000000 -127.372373 -12.958826 33.316290 125.794613 -9.968673 -4.333913 17.044334 -27.908080 11.877176 0.000001 0.000001 -0.000001 0.000001 0.000001 -0.000000 -101.321075 24.746592 -43.831390 134.521805 3.889253 1.324605 -0.422744 16.734040 32.867871 -0.000001 -0.000000 0.000002 -0.000000 0.000001 -0.000000 32.780796 5.495570 1.951510 6.928085 1.411408 0.809338 6.927405 1.400736 0.834283 8.137142 3.359822 2.019691 -4.939805 28.238401 -21.457490 -0.000002 0.000002 0.000001 -0.000002 0.000002 0.000001 -0.000002 0.000002 0.000002 -0.000002 0.000002 0.000001 0.000001 0.000002 0.000001 -0.000002 0.000002 0.000001 0.000001 0.000002 0.000001 -0.000002 0.000002 0.000001 -0.000002 0.000002 0.000001 0.260211 -3.373977 3.577368 -40.196042 20.677964 26.508068 -0.000007 -2.492638 0.000006 7.106752 -15.300563 -31.430591 -1.511007 3.682985 6.108661 3.939052 7.948710 0.746820 -0.000001 0.000001 -0.000000 0.033126 0.675967 -5.610580 0.032969 0.674436 -5.597740 -0.000000 0.000001 -0.000000 0.069850 0.980272 -8.151118 0.078699 1.040174 -8.653173 0.000007 0.000001 0.000001 0.141438 1.391193 -11.609550 0.158264 1.470743 -12.283639 0.000000 0.000001 0.000000 1.260510 5.698233 -14.444259 0.229467 -2.281940 -15.368563 -0.000003 -0.000002 0.000001 0.000001 -0.000000 -0.000002 -2.438235 -4.287076 -32.305559 -40.704048 7.760218 -13.687627 0.000005 15.033130 -0.000010 9.217874 -10.057909 64.473509 -1.849261 -3.581790 -6.586129 4.637202 -8.634118 -0.225397 -0.000003 -0.000001 0.000001 0.097321 -1.161578 9.577305 0.097302 -1.161571 9.577323 0.000000 0.000002 0.000006 0.734454 -4.504875 10.622729 0.142216 -1.401929 11.584705 0.000001 -0.000003 -0.000001 1.799556 -8.681472 12.425414 0.204355 -1.676608 13.897300 0.000004 0.000003 -0.000003 3.082003 -12.378825 14.479187 0.252514 -1.860369 15.457615 -0.000000 -0.000002 -0.000001 -0.000000 -0.000001 -0.000002 -0.000001 0.000000 -0.000000 -0.000001 0.000000 -0.000000 -0.000001 0.000000 -0.000000 -0.000001 0.000000 -0.000000 -0.000001 0.000000 -0.000000 -0.000001 0.000000 -0.000000 -0.000001 0.000000 -0.000000 -0.000001 0.000000 -0.000000 -0.000001 0.000000 -0.000000 -0.000001 0.000000 -0.000000 -0.000001 -0.000001 0.000000 -0.000001 -0.000001 0.000000 -0.000001 -0.000001 0.000000 
-4.260463 92.735924 -10.107291 10.324543 -10.443646 -0.377649 -0.000000 0.000000 -0.000000 -125.412136 -11.365239 33.473535 125.213787 -9.778790 -5.236699 17.078533 -27.333206 13.828782 0.000002 0.000002 -0.000000 -0.000002 0.000000 -0.000000 -98.245933 23.342849 -43.566529 132.869992 4.441829 1.804206 -2.653171 15.806495 32.782627 -0.000003 -0.000001 0.000003 -0.000001 0.000000 -0.000001 32.042374 5.510887 1.389071 6.762696 1.484584 0.721720 6.761562 1.477280 0.747490 8.034091 3.323867 2.004732 -4.484727 27.881879 -21.407111 -0.000002 0.000002 -0.000000 -0.000002 0.000002 -0.000000 -0.000002 0.000002 -0.000000 -0.000002 0.000002 -0.000001 -0.000001 -0.000001 0.000000 -0.000002 0.000002 -0.000001 -0.000001 -0.000001 0.000000 -0.000002 0.000002 -0.000000 -0.000002 0.000002 -0.000000 0.150304 -2.880988 3.833598 -39.803361 20.644056 27.958483 -0.000008 -3.001041 -0.000001 7.784225 -14.020435 -32.303417 -1.509867 3.682945 6.106608 3.939061 7.948709 0.746820 0.000003 -0.000000 0.000000 0.033132 0.675967 -5.610580 0.032965 0.674434 -5.597744 -0.000003 -0.000000 -0.000000 0.069855 0.980272 -8.151118 0.078701 1.040173 -8.653173 0.000002 0.000001 0.000001 0.141444 1.391193 -11.609550 0.158260 1.470743 -12.283639 -0.000003 0.000001 -0.000001 1.260518 5.698234 -14.444259 0.229470 -2.281941 -15.368557 -0.000002 0.000001 -0.000001 0.000001 -0.000000 0.000000 -1.787106 -2.322995 -32.141969 -38.691519 3.637156 -16.996654 -0.000001 17.122622 -0.000003 6.431859 -10.848097 65.605265 -1.849261 -3.581790 -6.586135 4.637196 -8.634119 -0.225394 -0.000004 -0.000002 0.000000 0.097318 -1.161576 9.577306 0.097300 -1.161575 9.577323 -0.000001 0.000000 0.000004 0.734455 -4.504876 10.622733 0.142213 -1.401923 11.584700 0.000004 -0.000003 0.000000 1.799558 -8.681474 12.425418 0.204360 -1.676607 13.897299 0.000003 0.000002 0.000005 3.082002 -12.378823 14.479187 0.252512 -1.860362 15.457613 -0.000001 -0.000001 -0.000001 0.000001 0.000001 -0.000001 -0.000000 -0.000000 0.000000 0.000002 0.000000 -0.000000 -0.000000 -0.000000 0.000001 -0.000000 -0.000000 0.000001 -0.000000 -0.000000 0.000000 0.000002 0.000000 0.000000 -0.000000 -0.000000 0.000001 -0.000000 -0.000000 0.000001 -0.000000 -0.000000 0.000000 0.000002 0.000000 0.000000 -0.000000 0.000000 -0.000000 -0.000000 0.000000 -0.000000 -0.000000 0.000000 -0.000000 
-4.157896 91.757195 -9.740597 10.018581 -10.803305 -0.370697 0.000001 -0.000001 0.000000 -122.924663 -9.912041 33.243470 124.461811 -9.595285 -5.686057 16.479221 -25.741665 14.773974 0.000001 -0.000000 0.000000 -0.000002 0.000001 -0.000002 -95.070892 21.478269 -42.450879 131.222346 4.999425 2.010309 -5.504381 14.469962 32.792742 -0.000001 -0.000001 0.000002 0.000002 0.000002 -0.000007 31.025639 5.752518 0.950959 6.538969 1.568813 0.665330 6.537228 1.564634 0.691662 7.825997 3.324094 1.952253 -4.157715 27.663967 -21.379899 0.000002 0.000000 -0.000000 0.000002 0.000000 -0.000000 0.000002 0.000000 -0.000000 0.000002 0.000000 -0.000000 0.000002 0.000000 0.000001 0.000002 0.000000 -0.000000 0.000002 0.000000 0.000001 0.000002 0.000000 -0.000000 0.000002 0.000000 -0.000000 0.039207 -2.385779 4.168916 -38.968329 20.585632 29.044410 -0.000004 -3.374198 -0.000017 8.050763 -13.187925 -33.345899 -1.508785 3.682913 6.104662 3.939056 7.948710 0.746822 0.000002 0.000001 0.000000 0.033134 0.675967 -5.610579 0.032965 0.674434 -5.597742 0.000001 0.000000 -0.000000 0.069850 0.980273 -8.151118 0.078700 1.040173 -8.653173 0.000000 0.000001 -0.000001 0.141442 1.391193 -11.609545 0.158267 1.470741 -12.283640 0.000003 0.000001 -0.000001 1.260517 5.698233 -14.444255 0.229471 -2.281939 -15.368561 -0.000001 0.000001 -0.000000 -0.000000 -0.000001 -0.000002 -1.195184 -0.396595 -31.763341 -37.135137 -0.211828 -19.628949 -0.000004 19.145503 -0.000005 4.004372 -11.617233 66.067211 -1.849265 -3.581789 -6.586135 4.637203 -8.634119 -0.225399 0.000003 -0.000001 0.000001 0.097317 -1.161577 9.577302 0.097305 -1.161577 9.577319 -0.000001 -0.000002 -0.000002 0.734453 -4.504875 10.622727 0.142213 -1.401923 11.584701 -0.000002 -0.000003 -0.000005 1.799554 -8.681474 12.425414 0.204358 -1.676608 13.897302 0.000002 -0.000001 -0.000000 3.081995 -12.378826 14.479185 0.252511 -1.860366 15.457621 0.000002 -0.000001 0.000002 -0.000002 -0.000001 -0.000002 0.000003 0.000000 -0.000000 -0.000001 0.000000 -0.000000 0.000003 0.000000 -0.000000 0.000003 0.000000 -0.000000 0.000003 0.000000 -0.000000 -0.000001 0.000000 -0.000000 0.000003 0.000000 -0.000000 0.000003 0.000000 -0.000000 0.000003 0.000000 -0.000000 -0.000001 0.000000 -0.000000 0.000001 -0.000001 0.000000 0.000001 -0.000001 0.000000 0.000001 -0.000001 0.000000 
-4.099416 90.493004 -9.440000 9.341482 -11.128796 -0.620243 -0.000000 0.000001 -0.000000 -120.323536 -8.536764 32.626393 123.836316 -9.421107 -5.429159 14.887671 -24.169383 14.561415 0.000001 -0.000001 0.000000 -0.000001 -0.000001 0.000002 -91.889684 19.395152 -40.670047 129.936972 5.391467 1.796665 -9.015738 12.269786 32.826982 -0.000001 0.000001 -0.000000 -0.000001 -0.000001 -0.000000 29.853971 6.227470 0.742562 6.286044 1.654823 0.662580 6.283584 1.652843 0.689204 7.656646 3.360288 1.905502 -4.140577 27.693038 -21.293154 -0.000001 -0.000001 0.000001 -0.000001 -0.000001 0.000001 -0.000001 -0.000001 0.000002 -0.000001 -0.000001 0.000001 -0.000001 0.000003 -0.000000 -0.000001 -0.000001 0.000001 -0.000001 0.000003 -0.000000 -0.000001 -0.000001 0.000001 -0.000001 -0.000001 0.000001 -0.029574 -2.134307 4.558659 -37.997995 20.763763 30.040511 0.000005 -3.667781 0.000010 8.120512 -12.981499 -34.557253 -1.507748 3.682874 6.102818 3.939061 7.948711 0.746821 0.000000 0.000002 0.000002 0.033129 0.675967 -5.610580 0.032959 0.674433 -5.597739 -0.000006 -0.000000 -0.000004 0.069848 0.980273 -8.151117 0.078700 1.040174 -8.653171 0.000001 0.000000 -0.000001 0.141444 1.391193 -11.609546 0.158262 1.470742 -12.283638 0.000001 0.000001 0.000000 1.260513 5.698232 -14.444257 0.229474 -2.281940 -15.368557 -0.000002 -0.000001 -0.000001 0.000000 0.000001 0.000004 -0.769562 1.209643 -31.233769 -36.055882 -3.151200 -21.148537 0.000005 20.611966 0.000016 3.113601 -11.902697 66.283188 -1.849260 -3.581790 -6.586133 4.637201 -8.634118 -0.225398 -0.000001 0.000000 0.000003 0.097316 -1.161575 9.577309 0.097301 -1.161576 9.577323 0.000004 -0.000001 0.000005 0.734452 -4.504874 10.622735 0.142214 -1.401922 11.584701 0.000003 -0.000002 0.000001 1.799560 -8.681472 12.425419 0.204350 -1.676608 13.897302 0.000003 0.000001 0.000001 3.082002 -12.378824 14.479190 0.252509 -1.860364 15.457623 -0.000003 0.000001 -0.000003 0.000002 -0.000002 -0.000001 -0.000001 0.000000 -0.000000 -0.000003 -0.000000 -0.000000 -0.000001 0.000000 0.000000 -0.000001 0.000000 0.000000 -0.000001 0.000000 -0.000000 -0.000003 -0.000000 -0.000000 -0.000001 0.000000 0.000000 -0.000001 0.000000 0.000000 -0.000001 0.000000 -0.000000 -0.000003 -0.000000 -0.000000 -0.000000 0.000001 -0.000000 -0.000000 0.000001 -0.000000 -0.000000 0.000001 -0.000000 
